# xmcd
#
# Track frame offsets: 
#        150
#        18725
#        29659
#        47462
#        61421
#        87616
#        100228
#        115506
#        127486
#        155012
#        169382
#        185940
#        199912
#        223004
#        236850
#        251181
#
# Disc length: 3608 seconds
#
# Revision: 0
# Processed by: cddbd v1.5.2PL0 Copyright (c) Steve Scherf et al.
# Submitted via: ExactAudioCopy v1.3
#
DISCID=000e1610
DTITLE=Various Artist - Picasso Blues
DYEAR=2011
DGENRE=Blues
TTITLE0=Odetta - Hard Oh Lord
TTITLE1=Alberta Hunter - St Louis Blues
TTITLE2=Claire Austin - See See Rider
TTITLE3=Helen Humes - A Good Man is Hard to Find
TTITLE4=Ella Fitzgerald - T'Ain't Nobody's Business If I Do
TTITLE5=Juanita Hall - I Don't Want It Second Hand
TTITLE6=Ida Cox - St Louis Blues
TTITLE7=Billie and Dede Pierce - Baby Won't You Please Come Home
TTITLE8=Ruth Brown - Cabbage Head
TTITLE9=Ma Rainey - Black Eye Blues
TTITLE10=Victoria Spivey - Arkansas Blues
TTITLE11=Juanita Hall - Hold That Train
TTITLE12=Ella Fitzgerald - St Louis Blues
TTITLE13=Odetta - Believe I'll Go
TTITLE14=Ma Rainey - Ma Rainey's Black Bottom
TTITLE15=Etta James - He's Got the Whole World In His Hand
EXTD=
EXTT0=
EXTT1=
EXTT2=
EXTT3=
EXTT4=
EXTT5=
EXTT6=
EXTT7=
EXTT8=
EXTT9=
EXTT10=
EXTT11=
EXTT12=
EXTT13=
EXTT14=
EXTT15=
PLAYORDER=
